<?xml version="1.0" encoding="UTF-8"?> <!-- Generator: Adobe Illustrator 23.0.3, SVG Export Plug-In . SVG Version: 6.00 Build 0) --> <svg xmlns="http://www.w3.org/2000/svg" xmlns:xlink="http://www.w3.org/1999/xlink" id="Layer_1" x="0px" y="0px" viewBox="0 0 155.6 155.6" style="enable-background:new 0 0 155.6 155.6;" xml:space="preserve"> <style type="text/css"> .st0{fill:url(#SVGID_1_);} .st1{fill:none;} .st2{clip-path:url(#SVGID_3_);fill:#FFFFFF;} .st3{fill:#D40000;} </style> <g> <linearGradient id="SVGID_1_" gradientUnits="userSpaceOnUse" x1="33.6923" y1="16.3112" x2="122.2389" y2="139.7398"> <stop offset="0" style="stop-color:#F73E3E"></stop> <stop offset="1" style="stop-color:#A30505"></stop> </linearGradient> <circle class="st0" cx="77.8" cy="77.8" r="77.8"></circle> </g> <rect x="29" y="65" class="st1" width="97.6" height="25.6"></rect> <g> <g> <defs> <rect id="SVGID_2_" x="24.1" y="63.7" width="107.4" height="28.2"></rect> </defs> <clipPath id="SVGID_3_"> <use xlink:href="#SVGID_2_" style="overflow:visible;"></use> </clipPath> <path class="st2" d="M24.1,63.7h107.4v28.2H24.1V63.7z"></path> </g> <path class="st3" d="M28.6,68h15.6v2.1L31.7,85.4h12.9v2.2H28.3v-2.1l12.5-15.3H28.6V68z M55,70.7l-3.6,9.7h7.3L55,70.7z M53.5,68 h3l7.6,19.6h-2.8l-1.8-4.9h-8.9l-1.8,4.9H46L53.5,68z M69.6,78.3v7.2h4.3c1.4,0,2.5-0.3,3.2-0.9c0.7-0.6,1-1.4,1-2.6 c0-1.2-0.3-2.1-1-2.6c-0.7-0.6-1.8-0.9-3.2-0.9L69.6,78.3L69.6,78.3z M69.6,70.2v5.8h4c1.3,0,2.3-0.2,3-0.7c0.7-0.5,1-1.2,1-2.2 c0-1-0.3-1.8-1-2.2c-0.7-0.6-1.7-0.7-3-0.7h-4V70.2z M66.9,68h6.8c2.1,0,3.6,0.4,4.7,1.3c1.1,0.9,1.7,2.1,1.7,3.6 c0,1.2-0.2,2.2-0.9,2.9c-0.6,0.7-1.4,1.1-2.5,1.3c1.3,0.2,2.3,0.9,3.1,1.8c0.7,0.9,1.1,2,1.1,3.3c0,1.8-0.6,3.1-1.8,4.1 c-1.2,1-2.9,1.4-5.1,1.4h-7.2V68L66.9,68z M87.9,78.3v7.2h4.3c1.4,0,2.5-0.3,3.2-0.9c0.7-0.6,1-1.4,1-2.6c0-1.2-0.3-2.1-1-2.6 s-1.8-0.9-3.2-0.9L87.9,78.3L87.9,78.3z M87.9,70.2v5.8h4c1.3,0,2.3-0.2,3-0.7c0.7-0.5,1-1.2,1-2.2c0-1-0.3-1.8-1-2.2 c-0.7-0.6-1.7-0.7-3-0.7h-4V70.2z M85.2,68H92c2.1,0,3.6,0.4,4.7,1.3c1.1,0.9,1.7,2.1,1.7,3.6c0,1.2-0.2,2.2-0.9,2.9 c-0.6,0.7-1.4,1.1-2.5,1.3c1.3,0.2,2.3,0.9,3.1,1.8c0.7,0.9,1.1,2,1.1,3.3c0,1.8-0.6,3.1-1.8,4.1c-1.2,1-2.9,1.4-5.1,1.4h-7.2V68 L85.2,68z M111.3,68h3l4.6,7l4.7-7h2.9l-6.2,9.1l6.9,10.5h-3l-5.4-8.1l-5.4,8.1h-2.9l6.9-10.3L111.3,68z M103.6,68h2.6v19.6h-2.6 V68z"></path> </g> </svg> 